<mxfile host="Electron" agent="Mozilla/5.0 (Macintosh; Intel Mac OS X 10_15_7) AppleWebKit/537.36 (KHTML, like Gecko) draw.io/28.2.7 Chrome/138.0.7204.251 Electron/37.7.1 Safari/537.36" version="28.2.7">
  <diagram id="EyFhT2X7jMq6bR1o78_Q" name="Page-1">
    <mxGraphModel dx="1155" dy="846" grid="1" gridSize="10" guides="1" tooltips="1" connect="1" arrows="1" fold="1" page="1" pageScale="1" pageWidth="1654" pageHeight="2339" background="#20384F" math="0" shadow="0">
      <root>
        <mxCell id="0" />
        <mxCell id="1" parent="0" />
        <mxCell id="title" value="Jupiter Wheels - DDD Architecture" style="text;html=1;align=center;verticalAlign=middle;whiteSpace=wrap;rounded=0;fontSize=24;fontStyle=1;labelBackgroundColor=none;fillColor=#0050ef;fontColor=#ffffff;strokeColor=#001DBC;" parent="1" vertex="1">
          <mxGeometry x="527" y="20" width="600" height="40" as="geometry" />
        </mxCell>
        <mxCell id="coreDomain" value="CORE DOMAIN" style="rounded=1;whiteSpace=wrap;html=1;fontSize=16;fontStyle=1;labelBackgroundColor=none;fillColor=#0050ef;fontColor=#ffffff;strokeColor=#001DBC;" parent="1" vertex="1">
          <mxGeometry x="100" y="100" width="600" height="40" as="geometry" />
        </mxCell>
        <mxCell id="bikeFleetAggregate" value="Bike Fleet Management&#xa;Aggregate" style="rounded=1;whiteSpace=wrap;html=1;fontSize=12;fontStyle=1;labelBackgroundColor=none;fillColor=#0050ef;fontColor=#ffffff;strokeColor=#001DBC;" parent="1" vertex="1">
          <mxGeometry x="120" y="160" width="160" height="80" as="geometry" />
        </mxCell>
        <mxCell id="fleetCommands" value="Commands:&#xa;• CreateNewBike&#xa;• RemoveBikeFromFleet" style="rounded=1;whiteSpace=wrap;html=1;labelBackgroundColor=none;fillColor=#0050ef;fontColor=#ffffff;strokeColor=#001DBC;" parent="1" vertex="1">
          <mxGeometry x="120" y="250" width="160" height="70" as="geometry" />
        </mxCell>
        <mxCell id="fleetEvents" value="Events:&#xa;• BikeCreated&#xa;• BikeMarkedAsAvailable&#xa;• BikeRemovedFromFleet" style="rounded=1;whiteSpace=wrap;html=1;labelBackgroundColor=none;fillColor=#0050ef;fontColor=#ffffff;strokeColor=#001DBC;" parent="1" vertex="1">
          <mxGeometry x="120" y="330" width="160" height="80" as="geometry" />
        </mxCell>
        <mxCell id="bikeRentalAggregate" value="Bike Rental Management&#xa;Aggregate" style="rounded=1;whiteSpace=wrap;html=1;fontSize=12;fontStyle=1;labelBackgroundColor=none;fillColor=#0050ef;fontColor=#ffffff;strokeColor=#001DBC;" parent="1" vertex="1">
          <mxGeometry x="300" y="160" width="160" height="80" as="geometry" />
        </mxCell>
        <mxCell id="rentalCommands" value="Commands:&#xa;• RequestBikeRental" style="rounded=1;whiteSpace=wrap;html=1;labelBackgroundColor=none;fillColor=#0050ef;fontColor=#ffffff;strokeColor=#001DBC;" parent="1" vertex="1">
          <mxGeometry x="300" y="250" width="160" height="50" as="geometry" />
        </mxCell>
        <mxCell id="rentalEvents" value="Events:&#xa;• BikeRentalRequested&#xa;• RentalRequestRejected..." style="rounded=1;whiteSpace=wrap;html=1;labelBackgroundColor=none;fillColor=#0050ef;fontColor=#ffffff;strokeColor=#001DBC;" parent="1" vertex="1">
          <mxGeometry x="300" y="310" width="160" height="60" as="geometry" />
        </mxCell>
        <mxCell id="bikeUsageAggregate" value="Bike Usage Management&#xa;Aggregate" style="rounded=1;whiteSpace=wrap;html=1;fontSize=12;fontStyle=1;labelBackgroundColor=none;fillColor=#0050ef;fontColor=#ffffff;strokeColor=#001DBC;" parent="1" vertex="1">
          <mxGeometry x="480" y="160" width="160" height="80" as="geometry" />
        </mxCell>
        <mxCell id="usageCommands" value="Commands:&#xa;• PauseRental&#xa;• ResumeRental&#xa;• EndRentalEarly" style="rounded=1;whiteSpace=wrap;html=1;labelBackgroundColor=none;fillColor=#0050ef;fontColor=#ffffff;strokeColor=#001DBC;" parent="1" vertex="1">
          <mxGeometry x="480" y="250" width="160" height="80" as="geometry" />
        </mxCell>
        <mxCell id="usageEvents" value="Events:&#xa;• RentalPaused&#xa;• RentalResumed&#xa;• RentalEndedEarly&#xa;• PaymentCompleted" style="rounded=1;whiteSpace=wrap;html=1;labelBackgroundColor=none;fillColor=#0050ef;fontColor=#ffffff;strokeColor=#001DBC;" parent="1" vertex="1">
          <mxGeometry x="480" y="340" width="160" height="90" as="geometry" />
        </mxCell>
        <mxCell id="supportingDomain" value="SUPPORTING DOMAINS" style="rounded=1;whiteSpace=wrap;html=1;fontSize=16;fontStyle=1;labelBackgroundColor=none;fillColor=#0050ef;fontColor=#ffffff;strokeColor=#001DBC;" parent="1" vertex="1">
          <mxGeometry x="100" y="460" width="600" height="40" as="geometry" />
        </mxCell>
        <mxCell id="bikeReturnAggregate" value="Bike Return Management&#xa;Aggregate" style="rounded=1;whiteSpace=wrap;html=1;fontSize=12;fontStyle=1;labelBackgroundColor=none;fillColor=#0050ef;fontColor=#ffffff;strokeColor=#001DBC;" parent="1" vertex="1">
          <mxGeometry x="120" y="520" width="160" height="80" as="geometry" />
        </mxCell>
        <mxCell id="returnCommands" value="Commands:&#xa;• ReturnBikeAtLocation&#xa;• SubmitBikePhoto&#xa;• SubmitReturnSurvey&#xa;• ReportInspectionResults" style="rounded=1;whiteSpace=wrap;html=1;labelBackgroundColor=none;fillColor=#0050ef;fontColor=#ffffff;strokeColor=#001DBC;" parent="1" vertex="1">
          <mxGeometry x="120" y="610" width="160" height="100" as="geometry" />
        </mxCell>
        <mxCell id="bikeReplacementAggregate" value="Bike Replacement&#xa;Management Aggregate" style="rounded=1;whiteSpace=wrap;html=1;fontSize=12;fontStyle=1;labelBackgroundColor=none;fillColor=#0050ef;fontColor=#ffffff;strokeColor=#001DBC;" parent="1" vertex="1">
          <mxGeometry x="300" y="520" width="160" height="80" as="geometry" />
        </mxCell>
        <mxCell id="replacementCommands" value="Commands:&#xa;• RequestBikeReplacement&#xa;• AssignReplacementBike" style="rounded=1;whiteSpace=wrap;html=1;labelBackgroundColor=none;fillColor=#0050ef;fontColor=#ffffff;strokeColor=#001DBC;" parent="1" vertex="1">
          <mxGeometry x="300" y="610" width="160" height="70" as="geometry" />
        </mxCell>
        <mxCell id="paymentAggregate" value="Payment Processing&#xa;Aggregate" style="rounded=1;whiteSpace=wrap;html=1;fontSize=12;fontStyle=1;labelBackgroundColor=none;fillColor=#0050ef;fontColor=#ffffff;strokeColor=#001DBC;" parent="1" vertex="1">
          <mxGeometry x="480" y="520" width="160" height="80" as="geometry" />
        </mxCell>
        <mxCell id="paymentCommands" value="Commands:&#xa;• ConfirmPaymentSuccess&#xa;• ReportPaymentFailure&#xa;• RetryPayment" style="rounded=1;whiteSpace=wrap;html=1;labelBackgroundColor=none;fillColor=#0050ef;fontColor=#ffffff;strokeColor=#001DBC;" parent="1" vertex="1">
          <mxGeometry x="480" y="610" width="160" height="80" as="geometry" />
        </mxCell>
        <mxCell id="genericDomain" value="GENERIC SUBDOMAINS" style="rounded=1;whiteSpace=wrap;html=1;fontSize=16;fontStyle=1;labelBackgroundColor=none;fillColor=#0050ef;fontColor=#ffffff;strokeColor=#001DBC;" parent="1" vertex="1">
          <mxGeometry x="100" y="740" width="600" height="40" as="geometry" />
        </mxCell>
        <mxCell id="viewComponents" value="View Components" style="rounded=1;whiteSpace=wrap;html=1;fontSize=12;fontStyle=1;labelBackgroundColor=none;fillColor=#0050ef;fontColor=#ffffff;strokeColor=#001DBC;" parent="1" vertex="1">
          <mxGeometry x="120" y="800" width="160" height="60" as="geometry" />
        </mxCell>
        <mxCell id="viewQueries" value="Queries:&#xa;• AllBikesInFleet&#xa;• AvailableBikes&#xa;• BikeDetails&#xa;• BikeMaintenanceDetails&#xa;• SimilarNearbyBikes" style="rounded=1;whiteSpace=wrap;html=1;labelBackgroundColor=none;fillColor=#0050ef;fontColor=#ffffff;strokeColor=#001DBC;" parent="1" vertex="1">
          <mxGeometry x="120" y="870" width="160" height="120" as="geometry" />
        </mxCell>
        <mxCell id="externalSystems" value="External System&#xa;Integrations" style="rounded=1;whiteSpace=wrap;html=1;fontSize=12;fontStyle=1;labelBackgroundColor=none;fillColor=#0050ef;fontColor=#ffffff;strokeColor=#001DBC;" parent="1" vertex="1">
          <mxGeometry x="300" y="800" width="160" height="60" as="geometry" />
        </mxCell>
        <mxCell id="externalSystemsList" value="Systems:&#xa;• Bluetooth System&#xa;• Bike Monitoring&#xa;• Payment Gateway&#xa;• Inspection System&#xa;• Emergency Support" style="rounded=1;whiteSpace=wrap;html=1;labelBackgroundColor=none;fillColor=#0050ef;fontColor=#ffffff;strokeColor=#001DBC;" parent="1" vertex="1">
          <mxGeometry x="300" y="870" width="160" height="120" as="geometry" />
        </mxCell>
        <mxCell id="userAccountMgmt" value="User Account&#xa;Management" style="rounded=1;whiteSpace=wrap;html=1;fontSize=12;fontStyle=1;labelBackgroundColor=none;fillColor=#0050ef;fontColor=#ffffff;strokeColor=#001DBC;" parent="1" vertex="1">
          <mxGeometry x="480" y="800" width="160" height="60" as="geometry" />
        </mxCell>
        <mxCell id="userCommands" value="Commands:&#xa;• RegisterAccount&#xa;• VerifyEmail" style="rounded=1;whiteSpace=wrap;html=1;labelBackgroundColor=none;fillColor=#0050ef;fontColor=#ffffff;strokeColor=#001DBC;" parent="1" vertex="1">
          <mxGeometry x="480" y="870" width="160" height="60" as="geometry" />
        </mxCell>
        <mxCell id="arrow1" value="" style="endArrow=classic;html=1;rounded=0;labelBackgroundColor=none;fontColor=default;fillColor=#0050ef;strokeColor=#001DBC;" parent="1" source="bikeFleetAggregate" target="bikeRentalAggregate" edge="1">
          <mxGeometry width="50" height="50" relative="1" as="geometry">
            <mxPoint x="290" y="200" as="sourcePoint" />
            <mxPoint x="340" y="150" as="targetPoint" />
          </mxGeometry>
        </mxCell>
        <mxCell id="arrow2" value="" style="endArrow=classic;html=1;rounded=0;labelBackgroundColor=none;fontColor=default;fillColor=#0050ef;strokeColor=#001DBC;" parent="1" source="bikeRentalAggregate" target="bikeUsageAggregate" edge="1">
          <mxGeometry width="50" height="50" relative="1" as="geometry">
            <mxPoint x="470" y="200" as="sourcePoint" />
            <mxPoint x="520" y="150" as="targetPoint" />
          </mxGeometry>
        </mxCell>
        <mxCell id="arrow3" value="" style="endArrow=classic;html=1;rounded=0;labelBackgroundColor=none;fontColor=default;fillColor=#0050ef;strokeColor=#001DBC;" parent="1" source="bikeUsageAggregate" target="bikeReturnAggregate" edge="1">
          <mxGeometry width="50" height="50" relative="1" as="geometry">
            <mxPoint x="560" y="240" as="sourcePoint" />
            <mxPoint x="200" y="520" as="targetPoint" />
            <Array as="points">
              <mxPoint x="560" y="450" />
              <mxPoint x="200" y="450" />
            </Array>
          </mxGeometry>
        </mxCell>
        <mxCell id="integrationArrow1" value="Events" style="endArrow=classic;html=1;rounded=0;labelBackgroundColor=none;fontColor=default;fillColor=#0050ef;strokeColor=#001DBC;" parent="1" source="bikeUsageAggregate" target="externalSystems" edge="1">
          <mxGeometry width="50" height="50" relative="1" as="geometry">
            <mxPoint x="560" y="240" as="sourcePoint" />
            <mxPoint x="380" y="800" as="targetPoint" />
            <Array as="points">
              <mxPoint x="560" y="380" />
              <mxPoint x="700" y="380" />
              <mxPoint x="700" y="750" />
              <mxPoint x="380" y="750" />
            </Array>
            <mxPoint as="offset" />
          </mxGeometry>
        </mxCell>
        <mxCell id="legend" value="LEGEND" style="rounded=1;whiteSpace=wrap;html=1;fontSize=14;fontStyle=1;labelBackgroundColor=none;fillColor=#0050ef;fontColor=#ffffff;strokeColor=#001DBC;" parent="1" vertex="1">
          <mxGeometry x="750" y="160" width="120" height="40" as="geometry" />
        </mxCell>
        <mxCell id="legendAggregate" value="Aggregate" style="rounded=1;whiteSpace=wrap;html=1;fontSize=10;labelBackgroundColor=none;fillColor=#0050ef;fontColor=#ffffff;strokeColor=#001DBC;" parent="1" vertex="1">
          <mxGeometry x="750" y="210" width="80" height="30" as="geometry" />
        </mxCell>
        <mxCell id="legendCommand" value="Commands" style="rounded=1;whiteSpace=wrap;html=1;fontSize=10;labelBackgroundColor=none;fillColor=#0050ef;fontColor=#ffffff;strokeColor=#001DBC;" parent="1" vertex="1">
          <mxGeometry x="750" y="250" width="80" height="30" as="geometry" />
        </mxCell>
        <mxCell id="legendEvent" value="Events" style="rounded=1;whiteSpace=wrap;html=1;fontSize=10;labelBackgroundColor=none;fillColor=#0050ef;fontColor=#ffffff;strokeColor=#001DBC;" parent="1" vertex="1">
          <mxGeometry x="750" y="290" width="80" height="30" as="geometry" />
        </mxCell>
        <mxCell id="legendQuery" value="Queries" style="rounded=1;whiteSpace=wrap;html=1;fontSize=10;labelBackgroundColor=none;fillColor=#0050ef;fontColor=#ffffff;strokeColor=#001DBC;" parent="1" vertex="1">
          <mxGeometry x="750" y="330" width="80" height="30" as="geometry" />
        </mxCell>
        <mxCell id="domainContext" value="BOUNDED CONTEXTS" style="text;html=1;align=center;verticalAlign=middle;whiteSpace=wrap;rounded=0;fontSize=18;fontStyle=1;labelBackgroundColor=none;fillColor=#0050ef;fontColor=#ffffff;strokeColor=#001DBC;" parent="1" vertex="1">
          <mxGeometry x="900" y="160" width="200" height="30" as="geometry" />
        </mxCell>
        <mxCell id="rentalContext" value="Rental Management Context:&#xa;• BikeRental Aggregate&#xa;• BikeUsage Aggregate&#xa;• BikeReturn Aggregate&#xa;• BikeReplacement Aggregate" style="rounded=1;whiteSpace=wrap;html=1;fontSize=11;align=left;labelBackgroundColor=none;fillColor=#0050ef;fontColor=#ffffff;strokeColor=#001DBC;" parent="1" vertex="1">
          <mxGeometry x="900" y="200" width="220" height="120" as="geometry" />
        </mxCell>
        <mxCell id="fleetContext" value="Fleet Management Context:&#xa;• BikeFleet Aggregate&#xa;• Monitoring Integration&#xa;• Maintenance Tracking" style="rounded=1;whiteSpace=wrap;html=1;fontSize=11;align=left;labelBackgroundColor=none;fillColor=#0050ef;fontColor=#ffffff;strokeColor=#001DBC;" parent="1" vertex="1">
          <mxGeometry x="900" y="330" width="220" height="80" as="geometry" />
        </mxCell>
        <mxCell id="paymentContext" value="Payment Context:&#xa;• Payment Processing&#xa;• Payment Gateway Integration&#xa;• Bluetooth System Integration" style="rounded=1;whiteSpace=wrap;html=1;fontSize=11;align=left;labelBackgroundColor=none;fillColor=#0050ef;fontColor=#ffffff;strokeColor=#001DBC;" parent="1" vertex="1">
          <mxGeometry x="900" y="420" width="220" height="80" as="geometry" />
        </mxCell>
        <mxCell id="queryContext" value="Query/View Context:&#xa;• Bikes View&#xa;• DropOff Zones View&#xa;• Payment Options View&#xa;• All Read Models" style="rounded=1;whiteSpace=wrap;html=1;fontSize=11;align=left;labelBackgroundColor=none;fillColor=#0050ef;fontColor=#ffffff;strokeColor=#001DBC;" parent="1" vertex="1">
          <mxGeometry x="900" y="510" width="220" height="90" as="geometry" />
        </mxCell>
        <mxCell id="eventFlowTitle" value="EVENT FLOW" style="text;html=1;align=center;verticalAlign=middle;whiteSpace=wrap;rounded=0;fontSize=14;fontStyle=1;labelBackgroundColor=none;fillColor=#0050ef;fontColor=#ffffff;strokeColor=#001DBC;" parent="1" vertex="1">
          <mxGeometry x="1150" y="160" width="120" height="30" as="geometry" />
        </mxCell>
        <mxCell id="eventFlowDesc" value="1. Fleet creates bikes&#xa;2. Users request rentals&#xa;3. Usage tracking begins&#xa;4. Monitoring detects issues&#xa;5. Replacement requested&#xa;6. Payment processed&#xa;7. Return process initiated&#xa;8. Views updated for queries" style="rounded=1;whiteSpace=wrap;html=1;fontSize=11;align=left;labelBackgroundColor=none;fillColor=#0050ef;fontColor=#ffffff;strokeColor=#001DBC;" parent="1" vertex="1">
          <mxGeometry x="1150" y="200" width="200" height="180" as="geometry" />
        </mxCell>
      </root>
    </mxGraphModel>
  </diagram>
</mxfile>
